<svg width="69" height="34" viewBox="0 0 69 34" fill="none" xmlns="http://www.w3.org/2000/svg">
<path fill-rule="evenodd" clip-rule="evenodd" d="M29.9196 12.3359C31.2259 12.3359 32.2848 11.277 32.2848 9.97071C32.2848 8.66442 31.2259 7.60547 29.9196 7.60547C28.6133 7.60547 27.5544 8.66442 27.5544 9.97071C27.5544 11.277 28.6133 12.3359 29.9196 12.3359ZM25.6728 19.159V26.307H22.1838V19.6687C22.1838 18.2312 21.2821 17.5517 20.1583 17.5517C18.8777 17.5517 17.9891 18.2966 17.9891 19.9431V26.294H14.5V10.0117H17.9891V15.7615C18.6163 14.899 19.7793 14.3371 21.3213 14.3371C23.6735 14.3502 25.6728 16.0228 25.6728 19.159ZM31.5533 14.6732H28.0642V26.3164H31.5533V14.6732ZM45.2874 19.154V26.302H41.7983V19.6637C41.7983 18.2262 40.8967 17.5467 39.7728 17.5467C38.4922 17.5467 37.6036 18.2916 37.6036 19.9381V26.2889H34.1146V14.6457H37.6036V15.7434C38.2308 14.8809 39.3939 14.319 40.9358 14.319C43.288 14.3451 45.2874 16.0178 45.2874 19.154ZM52.1086 22.1386V18.0223H54.4869V14.677H52.0956V11.4232L48.6065 12.4686V14.677H46.7379V18.0223H48.6065V22.1386C48.6065 25.4055 49.9394 26.7776 54.5 26.3072V23.1448C52.9711 23.2363 52.1086 23.1448 52.1086 22.1386Z" fill="url(#paint0_linear_14175_14084)"/>
<defs>
<linearGradient id="paint0_linear_14175_14084" x1="37.2671" y1="30.5271" x2="37.0196" y2="10.0276" gradientUnits="userSpaceOnUse">
<stop stop-color="#242D7C"/>
<stop offset="1" stop-color="#00AEEF"/>
</linearGradient>
</defs>
</svg>
